<!-- This is a placeholder for a background image. In a real implementation, you would use a real image file. -->
<!-- This SVG creates a subtle background pattern -->
<svg width="500" height="500" xmlns="http://www.w3.org/2000/svg">
  <defs>
    <pattern id="floral" width="100" height="100" patternUnits="userSpaceOnUse">
      <path d="M20,20 Q30,5 40,20 T60,20 Q75,5 80,20 T100,20" stroke="#f7ead7" fill="none" stroke-width="1" />
      <path d="M20,50 Q30,35 40,50 T60,50 Q75,35 80,50 T100,50" stroke="#f7ead7" fill="none" stroke-width="1" />
      <path d="M20,80 Q30,65 40,80 T60,80 Q75,65 80,80 T100,80" stroke="#f7ead7" fill="none" stroke-width="1" />
      <circle cx="20" cy="20" r="3" fill="#f7ead7" opacity="0.5" />
      <circle cx="60" cy="20" r="3" fill="#f7ead7" opacity="0.5" />
      <circle cx="100" cy="20" r="3" fill="#f7ead7" opacity="0.5" />
      <circle cx="20" cy="50" r="3" fill="#f7ead7" opacity="0.5" />
      <circle cx="60" cy="50" r="3" fill="#f7ead7" opacity="0.5" />
      <circle cx="100" cy="50" r="3" fill="#f7ead7" opacity="0.5" />
      <circle cx="20" cy="80" r="3" fill="#f7ead7" opacity="0.5" />
      <circle cx="60" cy="80" r="3" fill="#f7ead7" opacity="0.5" />
      <circle cx="100" cy="80" r="3" fill="#f7ead7" opacity="0.5" />
    </pattern>
  </defs>
  <rect width="100%" height="100%" fill="#fcf8f5" />
  <rect width="100%" height="100%" fill="url(#floral)" />
</svg>
